<?xml version="1.0" standalone="no"?><!DOCTYPE svg PUBLIC "-//W3C//DTD SVG 1.1//EN" "http://www.w3.org/Graphics/SVG/1.1/DTD/svg11.dtd"><svg t="1570864325300" class="icon" viewBox="0 0 1025 1024" version="1.1" xmlns="http://www.w3.org/2000/svg" p-id="2213" xmlns:xlink="http://www.w3.org/1999/xlink" width="22.021484375" height="22"><defs><style type="text/css"></style></defs><path d="M512.02048 128q69.67296 0 135.49568 21.17632t115.5072 55.00928 93.4912 74.83392 73.66656 82.00192 51.67104 74.83392 32.17408 54.82496l9.99424 21.34016q-2.33472 4.99712-6.32832 13.49632t-18.8416 34.67264-31.66208 51.67104-44.3392 60.0064-56.832 64.32768-69.50912 60.17024-82.3296 51.5072-94.84288 34.67264-107.33568 13.49632q-69.67296 0-135.49568-21.17632t-115.5072-54.82496-93.4912-74.3424-73.66656-81.48992-51.67104-74.50624-32.17408-55.00928l-9.99424-20.992q2.33472-4.99712 6.32832-13.49632t18.8416-34.83648 31.66208-51.83488 44.3392-60.33408 56.832-64.67584 69.50912-60.33408 82.3296-51.83488 94.84288-34.83648 107.33568-13.49632zM512.02048 213.34016q-46.67392 0-91.66848 12.32896t-81.16224 31.82592-70.67648 47.16544-59.65824 54.49728-48.82432 57.67168-37.66272 52.8384-26.33728 43.99104q12.32896 21.66784 26.33728 43.49952t37.66272 52.3264 48.82432 56.99584 59.65824 53.84192 70.67648 46.67392 81.16224 31.49824 91.66848 12.16512 91.66848-12.32896 81.16224-31.66208 70.67648-46.83776 59.65824-54.1696 48.82432-57.32352 37.66272-52.67456 26.33728-43.66336q-12.32896-21.66784-26.33728-43.66336t-37.66272-52.67456-48.82432-57.32352-59.65824-54.1696-70.67648-46.83776-81.16224-31.66208-91.66848-12.32896zM512.02048 341.34016q70.67648 0 120.66816 49.99168t49.99168 120.66816-49.99168 120.66816-120.66816 49.99168-120.66816-49.99168-49.99168-120.66816 49.99168-120.66816 120.66816-49.99168zM512.02048 426.65984q-35.328 0-60.33408 25.00608t-25.00608 60.33408 25.00608 60.33408 60.33408 25.00608 60.33408-25.00608 25.00608-60.33408-25.00608-60.33408-60.33408-25.00608z" p-id="2214"></path></svg>